<?xml version="1.0" encoding="utf-8"?>
<!-- Generator: Adobe Illustrator 18.1.1, SVG Export Plug-In . SVG Version: 6.00 Build 0)  -->
<svg version="1.1" id="Layer_1" xmlns="http://www.w3.org/2000/svg" xmlns:xlink="http://www.w3.org/1999/xlink" x="0px" y="0px"
	 viewBox="0 0 1036.7 784.8" enable-background="new 0 0 1036.7 784.8" xml:space="preserve">
<path fill="#F7F8F9" d="M984.8,453.2c0,69.8-68.4,238-121.5,275.4c-33.5,23.6-224.2,11-268.4,11c-36.1,0-219.9,33.6-249.4,17.3
	c-42.6-23.5-238.2-31.2-255.7-77.2C81.2,657,38,372.6,38,346.8c0-62.8,203.8-290.1,248.1-327.9C322.1-12,513.4,59.5,564.6,59.5
	c81.8,0,302,24.7,335.4,93.7C913.1,180.3,984.8,421,984.8,453.2z"/>
<path fill="#E6F1FF" d="M967.9,373.4c7.8,54.6-43.1,209.8-65.3,258.7c-48.8,107.6-228.5,37.8-369.6,58
	c-61.3,8.8-159.9,112.1-206.7,70.5c-28.1-25-193.7-110.6-221.5-126.9c-80.8-47.4-16.7-125.8-29.7-217
	c-6.2-43.4,11.7-107.4,39.9-141.2c25.7-30.8,49.1-163.7,74.4-194.8c58.9-72.1,145.3-8,253-23.4c67.5-9.7,138.6,43.7,226.9,62.2
	c59.9,12.5,144.7-16.8,176.2,6.8C908.8,173.5,956.7,295.1,967.9,373.4z"/>
<g>
	<g>
		<defs>
			<path id="SVGID_1_" d="M21.8,79.8L21.8,79.8c0.7-0.7,1.9-0.7,2.6,0l29.8,29.8c0.7,0.7,0.7,1.9,0,2.6c-0.7,0.7-1.9,0.7-2.6,0
				L21.8,82.3C21.1,81.6,21.1,80.5,21.8,79.8z"/>
		</defs>
		<use xlink:href="#SVGID_1_"  overflow="visible" fill-rule="evenodd" clip-rule="evenodd" fill="#31A7FF"/>
		<clipPath id="SVGID_2_">
			<use xlink:href="#SVGID_1_"  overflow="visible"/>
		</clipPath>
		<g clip-path="url(#SVGID_2_)">
			
				<rect x="31.2" y="68.1" transform="matrix(-0.7071 0.7071 -0.7071 -0.7071 132.7251 136.8997)" fill="#31A7FF" width="13.6" height="55.8"/>
		</g>
	</g>
	<g>
		<path fill="#31A7FF" d="M52.9,122.2c-3,0-5.9-1.2-8-3.3L15.1,89c-4.4-4.4-4.4-11.6,0-16c2.1-2.1,5-3.3,8-3.3c3,0,5.9,1.2,8,3.3
			l29.8,29.8c4.4,4.4,4.4,11.6,0,16C58.8,121,55.9,122.2,52.9,122.2z"/>
	</g>
	<g>
		<defs>
			<path id="SVGID_3_" d="M54.2,79.8L54.2,79.8c-0.7-0.7-1.9-0.7-2.6,0l-29.8,29.8c-0.7,0.7-0.7,1.9,0,2.6c0.7,0.7,1.9,0.7,2.6,0
				l29.8-29.8C54.9,81.6,54.9,80.5,54.2,79.8z"/>
		</defs>
		<use xlink:href="#SVGID_3_"  overflow="visible" fill-rule="evenodd" clip-rule="evenodd" fill="#31A7FF"/>
		<clipPath id="SVGID_4_">
			<use xlink:href="#SVGID_3_"  overflow="visible"/>
		</clipPath>
		<g clip-path="url(#SVGID_4_)">
			
				<rect x="31.2" y="68.1" transform="matrix(0.7071 0.7071 -0.7071 0.7071 78.9713 1.2227)" fill="#31A7FF" width="13.6" height="55.8"/>
		</g>
	</g>
	<g>
		<path fill="#31A7FF" d="M23.1,122.2c-3,0-5.9-1.2-8-3.3c-4.4-4.4-4.4-11.6,0-16L44.9,73c2.1-2.1,5-3.3,8-3.3c3,0,5.9,1.2,8,3.3
			c4.4,4.4,4.4,11.6,0,16l-29.8,29.8C29,121,26.1,122.2,23.1,122.2z"/>
	</g>
</g>
<g>
	<g>
		<defs>
			<path id="SVGID_5_" d="M934.4,167.1c0.9-0.7,2.3-0.7,3.2,0l16.6,12.5c0.9,0.7,0.9,1.8,0,2.4c-0.9,0.7-2.3,0.7-3.2,0l-16.6-12.5
				C933.5,168.8,933.5,167.8,934.4,167.1z"/>
		</defs>
		<use xlink:href="#SVGID_5_"  overflow="visible" fill-rule="evenodd" clip-rule="evenodd" fill="#AED9FF"/>
		<clipPath id="SVGID_6_">
			<use xlink:href="#SVGID_5_"  overflow="visible"/>
		</clipPath>
		<g clip-path="url(#SVGID_6_)">
			<rect x="928.7" y="161.6" fill="#AED9FF" width="31.1" height="26"/>
		</g>
	</g>
	<g>
		<path fill="#AED9FF" d="M952.6,191.5c-2.6,0-5-0.8-7-2.3l-16.6-12.5c-2.7-2-4.2-5.1-4.2-8.4s1.5-6.4,4.2-8.4c2-1.5,4.5-2.3,7-2.3
			c2.6,0,5,0.8,7,2.3l16.6,12.5c2.7,2,4.2,5.1,4.2,8.4s-1.5,6.4-4.2,8.4C957.6,190.7,955.1,191.5,952.6,191.5z"/>
	</g>
	<g>
		<defs>
			<path id="SVGID_7_" d="M952.2,182c0.9,0.7,2.3,0.7,3.2,0l16.6-12.5c0.9-0.7,0.9-1.8,0-2.4c-0.9-0.7-2.3-0.7-3.2,0l-16.6,12.5
				C951.3,180.3,951.3,181.4,952.2,182z"/>
		</defs>
		<use xlink:href="#SVGID_7_"  overflow="visible" fill-rule="evenodd" clip-rule="evenodd" fill="#AED9FF"/>
		<clipPath id="SVGID_8_">
			<use xlink:href="#SVGID_7_"  overflow="visible"/>
		</clipPath>
		<g clip-path="url(#SVGID_8_)">
			<rect x="946.5" y="161.6" fill="#AED9FF" width="31.1" height="26"/>
		</g>
	</g>
	<g>
		<path fill="#AED9FF" d="M953.8,191.5c-2.6,0-5-0.8-7-2.3c-2.7-2-4.2-5.1-4.2-8.4s1.5-6.4,4.2-8.4l16.6-12.5c2-1.5,4.5-2.3,7-2.3
			c2.6,0,5,0.8,7,2.3c2.7,2,4.2,5.1,4.2,8.4s-1.5,6.4-4.2,8.4l-16.6,12.5C958.8,190.7,956.3,191.5,953.8,191.5z"/>
	</g>
	<g>
		<defs>
			<path id="SVGID_9_" d="M953.2,201.9c1.3,0,2.3-0.8,2.3-1.7v-17.7c0-0.9-1-1.7-2.3-1.7s-2.3,0.8-2.3,1.7v17.7
				C950.9,201.2,951.9,201.9,953.2,201.9z"/>
		</defs>
		<use xlink:href="#SVGID_9_"  overflow="visible" fill-rule="evenodd" clip-rule="evenodd" fill="#AED9FF"/>
		<clipPath id="SVGID_10_">
			<use xlink:href="#SVGID_9_"  overflow="visible"/>
		</clipPath>
		<g clip-path="url(#SVGID_10_)">
			<rect x="945.9" y="175.8" fill="#AED9FF" width="14.6" height="31.2"/>
		</g>
	</g>
	<g>
		<path fill="#AED9FF" d="M953.1,210.9c-6.2,0-11.3-4.8-11.3-10.7v-17.7c0-5.9,5.1-10.7,11.3-10.7s11.3,4.8,11.3,10.7v17.7
			C964.4,206.1,959.4,210.9,953.1,210.9z"/>
	</g>
</g>
<g>
	<g>
		<defs>
			<path id="SVGID_11_" d="M128.1,716h36c0.5,0,0.9,0.4,0.9,0.9s-0.4,0.9-0.9,0.9h-36c-0.5,0-0.9-0.4-0.9-0.9S127.7,716,128.1,716z"
				/>
		</defs>
		<use xlink:href="#SVGID_11_"  overflow="visible" fill-rule="evenodd" clip-rule="evenodd" fill="#31A7FF"/>
		<clipPath id="SVGID_12_">
			<use xlink:href="#SVGID_11_"  overflow="visible"/>
		</clipPath>
		<g clip-path="url(#SVGID_12_)">
			<rect x="122.3" y="711" fill="#31A7FF" width="47.7" height="11.8"/>
		</g>
	</g>
	<g>
		<path fill="#31A7FF" d="M164.1,727.2h-36c-5.7,0-10.4-4.7-10.4-10.4c0-5.7,4.7-10.4,10.4-10.4h36c5.7,0,10.4,4.7,10.4,10.4
			C174.5,722.6,169.8,727.2,164.1,727.2z"/>
	</g>
	<g>
		<defs>
			<path id="SVGID_13_" d="M128.6,749h36c0.5,0,0.9,0.4,0.9,0.9c0,0.5-0.4,0.9-0.9,0.9h-36c-0.5,0-0.9-0.4-0.9-0.9
				C127.7,749.4,128.1,749,128.6,749z"/>
		</defs>
		<use xlink:href="#SVGID_13_"  overflow="visible" fill-rule="evenodd" clip-rule="evenodd" fill="#31A7FF"/>
		<clipPath id="SVGID_14_">
			<use xlink:href="#SVGID_13_"  overflow="visible"/>
		</clipPath>
		<g clip-path="url(#SVGID_14_)">
			<rect x="122.7" y="744" fill="#31A7FF" width="47.7" height="11.8"/>
		</g>
	</g>
	<g>
		<path fill="#31A7FF" d="M164.6,760.3h-36c-5.7,0-10.4-4.7-10.4-10.4c0-5.7,4.7-10.4,10.4-10.4h36c5.7,0,10.4,4.7,10.4,10.4
			C175,755.6,170.3,760.3,164.6,760.3z"/>
	</g>
	<g>
		<defs>
			<path id="SVGID_15_" d="M128.2,749.1l35-32.5c0.4-0.3,1-0.3,1.3,0c0.4,0.3,0.4,0.9,0,1.2l-35,32.5c-0.4,0.3-1,0.3-1.3,0
				C127.8,750,127.8,749.4,128.2,749.1z"/>
		</defs>
		<use xlink:href="#SVGID_15_"  overflow="visible" fill-rule="evenodd" clip-rule="evenodd" fill="#31A7FF"/>
		<clipPath id="SVGID_16_">
			<use xlink:href="#SVGID_15_"  overflow="visible"/>
		</clipPath>
		<g clip-path="url(#SVGID_16_)">
			<rect x="122.9" y="711.4" fill="#31A7FF" width="46.9" height="44.2"/>
		</g>
	</g>
	<g>
		<path fill="#31A7FF" d="M128.8,760.1c-2.7,0-5.2-1-7.1-2.8c-2.1-2-3.3-4.7-3.3-7.6c0-2.9,1.2-5.6,3.3-7.6l35-32.5
			c1.9-1.8,4.5-2.8,7.1-2.8c2.7,0,5.2,1,7.1,2.8c2.1,2,3.3,4.7,3.3,7.6c0,2.9-1.2,5.6-3.3,7.6l-35,32.5
			C134,759.1,131.5,760.1,128.8,760.1z"/>
	</g>
</g>
<g>
	<g>
		<defs>
			<path id="SVGID_17_" d="M905.1,684.9L905.1,684.9c0.4-0.4,1-0.4,1.3,0l15.5,15.5c0.4,0.4,0.4,1,0,1.3c-0.4,0.4-1,0.4-1.3,0
				l-15.5-15.5C904.8,685.9,904.8,685.3,905.1,684.9z"/>
		</defs>
		<use xlink:href="#SVGID_17_"  overflow="visible" fill-rule="evenodd" clip-rule="evenodd" fill="#AED9FF"/>
		<clipPath id="SVGID_18_">
			<use xlink:href="#SVGID_17_"  overflow="visible"/>
		</clipPath>
		<g clip-path="url(#SVGID_18_)">
			
				<rect x="910" y="678.9" transform="matrix(-0.7071 0.7071 -0.7071 -0.7071 2049.7729 537.6072)" fill="#AED9FF" width="7.1" height="28.9"/>
		</g>
	</g>
	<g>
		<path fill="#AED9FF" d="M921.3,706.9c-1.6,0-3-0.6-4.2-1.7l-15.5-15.5c-2.3-2.3-2.3-6,0-8.3c1.1-1.1,2.6-1.7,4.2-1.7
			c1.6,0,3,0.6,4.1,1.7l15.5,15.5c1.1,1.1,1.7,2.6,1.7,4.2c0,1.6-0.6,3-1.7,4.2C924.3,706.3,922.8,706.9,921.3,706.9z"/>
	</g>
	<g>
		<defs>
			<path id="SVGID_19_" d="M921.9,684.9L921.9,684.9c-0.4-0.4-1-0.4-1.3,0l-15.5,15.5c-0.4,0.4-0.4,1,0,1.3c0.4,0.4,1,0.4,1.3,0
				l15.5-15.5C922.3,685.9,922.3,685.3,921.9,684.9z"/>
		</defs>
		<use xlink:href="#SVGID_19_"  overflow="visible" fill-rule="evenodd" clip-rule="evenodd" fill="#AED9FF"/>
		<clipPath id="SVGID_20_">
			<use xlink:href="#SVGID_19_"  overflow="visible"/>
		</clipPath>
		<g clip-path="url(#SVGID_20_)">
			
				<rect x="910" y="678.9" transform="matrix(0.7071 0.7071 -0.7071 0.7071 757.8257 -442.9032)" fill="#AED9FF" width="7.1" height="28.9"/>
		</g>
	</g>
	<g>
		<path fill="#AED9FF" d="M905.8,706.9c-1.6,0-3-0.6-4.2-1.7c-2.3-2.3-2.3-6,0-8.3l15.5-15.5c1.1-1.1,2.6-1.7,4.2-1.7
			c1.6,0,3,0.6,4.1,1.7c1.1,1.1,1.7,2.6,1.7,4.2c0,1.6-0.6,3-1.7,4.2L910,705.2C908.9,706.3,907.4,706.9,905.8,706.9z"/>
	</g>
</g>
<circle fill="#EAB8B5" cx="47.5" cy="295.6" r="9.5"/>
<polygon fill="#DD726F" points="700.3,69.9 706.9,73.9 714,70.7 712.2,78.3 717.5,84 709.7,84.7 705.9,91.4 702.9,84.2 695.3,82.7 
	701.2,77.6 "/>
<line fill="none" stroke="#EAB8B5" stroke-width="9" stroke-linecap="round" stroke-miterlimit="10" x1="903.2" y1="275.8" x2="997.2" y2="275.8"/>
<line fill="none" stroke="#EAB8B5" stroke-width="9" stroke-linecap="round" stroke-miterlimit="10" x1="950.2" y1="295.8" x2="997.2" y2="295.8"/>
<polygon fill="#E6F1FF" points="228.3,18.9 234.9,22.9 242,19.7 240.2,27.3 245.5,33 237.7,33.7 233.9,40.4 230.9,33.2 223.3,31.7 
	229.2,26.6 "/>
<circle fill="#E6F1FF" cx="71.1" cy="693.5" r="7.5"/>
<polyline fill="none" stroke="#DD726F" stroke-width="9" stroke-linecap="round" stroke-miterlimit="10" points="523.4,750.3 
	503.8,747.3 503.2,727.5 484.5,725.5 484.7,706.7 "/>
<g>
	<g>
		<defs>
			<path id="SVGID_21_" d="M89.2,235.2c0.5-0.4,1.3-0.4,1.9,0l9.6,7.2c0.5,0.4,0.5,1,0,1.4c-0.5,0.4-1.3,0.4-1.9,0l-9.6-7.2
				C88.7,236.2,88.7,235.6,89.2,235.2z"/>
		</defs>
		<use xlink:href="#SVGID_21_"  overflow="visible" fill-rule="evenodd" clip-rule="evenodd" fill="#31A7FF"/>
		<clipPath id="SVGID_22_">
			<use xlink:href="#SVGID_21_"  overflow="visible"/>
		</clipPath>
		<g clip-path="url(#SVGID_22_)">
			<rect x="86" y="232.1" fill="#31A7FF" width="17.9" height="15"/>
		</g>
	</g>
	<g>
		<path fill="#31A7FF" d="M99.7,249.3c-1.5,0-2.9-0.5-4.1-1.3l-9.6-7.2c-1.6-1.2-2.4-2.9-2.4-4.8c0-1.9,0.9-3.7,2.4-4.8
			c1.1-0.9,2.6-1.3,4.1-1.3c1.5,0,2.9,0.5,4.1,1.3l9.6,7.2c1.6,1.2,2.4,2.9,2.4,4.8c0,1.9-0.9,3.7-2.4,4.8
			C102.6,248.9,101.2,249.3,99.7,249.3z"/>
	</g>
	<g>
		<defs>
			<path id="SVGID_23_" d="M99.5,243.9c0.5,0.4,1.3,0.4,1.9,0l9.6-7.2c0.5-0.4,0.5-1,0-1.4c-0.5-0.4-1.3-0.4-1.9,0l-9.6,7.2
				C99,242.8,99,243.5,99.5,243.9z"/>
		</defs>
		<use xlink:href="#SVGID_23_"  overflow="visible" fill-rule="evenodd" clip-rule="evenodd" fill="#31A7FF"/>
		<clipPath id="SVGID_24_">
			<use xlink:href="#SVGID_23_"  overflow="visible"/>
		</clipPath>
		<g clip-path="url(#SVGID_24_)">
			<rect x="96.2" y="232.1" fill="#31A7FF" width="17.9" height="15"/>
		</g>
	</g>
	<g>
		<path fill="#31A7FF" d="M100.4,249.3c-1.5,0-2.9-0.5-4.1-1.3c-1.6-1.2-2.4-2.9-2.4-4.8c0-1.9,0.9-3.7,2.4-4.8l9.6-7.2
			c1.1-0.9,2.6-1.3,4.1-1.3c1.5,0,2.9,0.5,4.1,1.3c1.6,1.2,2.4,2.9,2.4,4.8c0,1.9-0.9,3.7-2.4,4.8l-9.6,7.2
			C103.3,248.9,101.9,249.3,100.4,249.3z"/>
	</g>
	<g>
		<defs>
			<path id="SVGID_25_" d="M100.1,255.3c0.7,0,1.3-0.4,1.3-1v-10.2c0-0.5-0.6-1-1.3-1c-0.7,0-1.3,0.4-1.3,1v10.2
				C98.7,254.9,99.3,255.3,100.1,255.3z"/>
		</defs>
		<use xlink:href="#SVGID_25_"  overflow="visible" fill-rule="evenodd" clip-rule="evenodd" fill="#31A7FF"/>
		<clipPath id="SVGID_26_">
			<use xlink:href="#SVGID_25_"  overflow="visible"/>
		</clipPath>
		<g clip-path="url(#SVGID_26_)">
			<rect x="95.9" y="240.2" fill="#31A7FF" width="8.4" height="18"/>
		</g>
	</g>
	<g>
		<path fill="#31A7FF" d="M100.1,260.5c-3.6,0-6.5-2.8-6.5-6.2v-10.2c0-3.4,2.9-6.2,6.5-6.2s6.5,2.8,6.5,6.2v10.2
			C106.5,257.7,103.6,260.5,100.1,260.5z"/>
	</g>
</g>
<g>
	<g>
		<defs>
			<path id="SVGID_27_" d="M996.6,609.5h22.1c0.3,0,0.5,0.2,0.5,0.5c0,0.3-0.2,0.5-0.5,0.5h-22.1c-0.3,0-0.5-0.2-0.5-0.5
				C996.1,609.8,996.3,609.5,996.6,609.5z"/>
		</defs>
		<use xlink:href="#SVGID_27_"  overflow="visible" fill-rule="evenodd" clip-rule="evenodd" fill="#DD726F"/>
		<clipPath id="SVGID_28_">
			<use xlink:href="#SVGID_27_"  overflow="visible"/>
		</clipPath>
		<g clip-path="url(#SVGID_28_)">
			<rect x="993" y="606.5" fill="#DD726F" width="29.3" height="7.2"/>
		</g>
	</g>
	<g>
		<path fill="#DD726F" d="M1018.7,616.4h-22.1c-3.5,0-6.4-2.9-6.4-6.4c0-3.5,2.9-6.4,6.4-6.4h22.1c3.5,0,6.4,2.9,6.4,6.4
			C1025.1,613.6,1022.2,616.4,1018.7,616.4z"/>
	</g>
	<g>
		<defs>
			<path id="SVGID_29_" d="M996.9,629.8h22.1c0.3,0,0.5,0.2,0.5,0.5c0,0.3-0.2,0.5-0.5,0.5h-22.1c-0.3,0-0.5-0.2-0.5-0.5
				C996.4,630,996.6,629.8,996.9,629.8z"/>
		</defs>
		<use xlink:href="#SVGID_29_"  overflow="visible" fill-rule="evenodd" clip-rule="evenodd" fill="#DD726F"/>
		<clipPath id="SVGID_30_">
			<use xlink:href="#SVGID_29_"  overflow="visible"/>
		</clipPath>
		<g clip-path="url(#SVGID_30_)">
			<rect x="993.3" y="626.7" fill="#DD726F" width="29.3" height="7.2"/>
		</g>
	</g>
	<g>
		<path fill="#DD726F" d="M1019,636.7h-22.1c-3.5,0-6.4-2.9-6.4-6.4c0-3.5,2.9-6.4,6.4-6.4h22.1c3.5,0,6.4,2.9,6.4,6.4
			C1025.4,633.9,1022.5,636.7,1019,636.7z"/>
	</g>
	<g>
		<defs>
			<path id="SVGID_31_" d="M996.7,629.8l21.4-19.9c0.2-0.2,0.6-0.2,0.8,0c0.2,0.2,0.2,0.5,0,0.8l-21.4,19.9c-0.2,0.2-0.6,0.2-0.8,0
				C996.4,630.4,996.4,630,996.7,629.8z"/>
		</defs>
		<use xlink:href="#SVGID_31_"  overflow="visible" fill-rule="evenodd" clip-rule="evenodd" fill="#DD726F"/>
		<clipPath id="SVGID_32_">
			<use xlink:href="#SVGID_31_"  overflow="visible"/>
		</clipPath>
		<g clip-path="url(#SVGID_32_)">
			<rect x="993.4" y="606.7" fill="#DD726F" width="28.7" height="27.1"/>
		</g>
	</g>
	<g>
		<path fill="#DD726F" d="M997.1,636.6c-1.6,0-3.2-0.6-4.4-1.7c-1.3-1.2-2-2.9-2-4.7c0-1.8,0.7-3.4,2-4.6l21.4-19.9
			c1.2-1.1,2.7-1.7,4.4-1.7c1.6,0,3.2,0.6,4.4,1.7c1.3,1.2,2,2.9,2,4.7c0,1.8-0.7,3.5-2,4.7l-21.4,19.9
			C1000.2,636,998.7,636.6,997.1,636.6z"/>
	</g>
</g>
</svg>
