
<svg width="233px" height="233px" viewBox="0 0 233 233" version="1.1" xmlns="http://www.w3.org/2000/svg" xmlns:xlink="http://www.w3.org/1999/xlink">
    <!-- Generator: Sketch 45 (43475) - http://www.bohemiancoding.com/sketch -->
    <desc>Created with Sketch.</desc>
    <defs></defs>
    <g id="Page-1" stroke="none" stroke-width="1" fill="none" fill-rule="evenodd">
        <g id="Artboard">
            <g id="Y" transform="translate(76.000000, 42.000000)" stroke="#6E99FF" stroke-width="18">
                <path d="M0.666442192,0.503370405 C1.55503178,-0.167790135 2.99572016,-0.167790135 3.88430975,0.503370405 L20.4687041,13.0297281 C21.3572937,13.7008887 21.3572937,14.7890549 20.4687041,15.4602154 C19.5801145,16.131376 18.1394261,16.131376 17.2508365,15.4602154 L0.666442192,2.93385772 C-0.222147397,2.26269718 -0.222147397,1.17453094 0.666442192,0.503370405 Z" id="Rectangle-3"></path>
                <path d="M18.4522059,15.4602154 C19.3407955,16.131376 20.7814838,16.131376 21.6700734,15.4602154 L38.2544678,2.93385772 C39.1430574,2.26269718 39.1430574,1.17453094 38.2544678,0.503370405 C37.3658782,-0.167790135 35.9251898,-0.167790135 35.0366002,0.503370405 L18.4522059,13.0297281 C17.5636163,13.7008887 17.5636163,14.7890549 18.4522059,15.4602154 Z" id="Rectangle-3"></path>
                <path d="M19.4478375,35.3518569 C20.7044929,35.3518569 21.7232134,34.5824071 21.7232134,33.6332428 L21.7232134,15.9182978 C21.7232134,14.9691335 20.7044929,14.1996838 19.4478375,14.1996838 C18.191182,14.1996838 17.1724615,14.9691335 17.1724615,15.9182978 L17.1724615,33.6332428 C17.1724615,34.5824071 18.191182,35.3518569 19.4478375,35.3518569 Z" id="Rectangle-3"></path>
            </g>
            <g id="z" transform="translate(194.000000, 99.000000)" stroke="#1B5FFF" stroke-width="19">
                <rect id="Rectangle-4" x="0" y="0" width="37.7165648" height="1.75119823" rx="0.875599116"></rect>
                <rect id="Rectangle-4" x="0.47145706" y="33.0538666" width="37.7165648" height="1.75119823" rx="0.875599116"></rect>
                <path d="M0.902469499,33.0895401 L35.8691526,0.619142073 C36.2373834,0.277199348 36.8344036,0.277199348 37.2026345,0.619142073 C37.5708654,0.961084797 37.5708654,1.51548349 37.2026345,1.85742622 L2.23595144,34.3278242 C1.86772057,34.6697669 1.27070037,34.6697669 0.902469499,34.3278242 C0.53423863,33.9858815 0.53423863,33.4314828 0.902469499,33.0895401 Z" id="Rectangle-4"></path>
            </g>
            <g id="x" transform="translate(97.000000, 151.000000)" stroke="#1B5FFF" stroke-width="19">
                <rect id="Rectangle-2" transform="translate(17.962917, 17.988677) rotate(-45.000000) translate(-17.962917, -17.988677) " x="16.148031" y="-4.89752326" width="3.62977208" height="45.7724001" rx="1.81488604"></rect>
                <rect id="Rectangle-2" transform="translate(17.962917, 17.988677) scale(-1, 1) rotate(-45.000000) translate(-17.962917, -17.988677) " x="16.148031" y="-4.89752326" width="3.62977208" height="45.7724001" rx="1.81488604"></rect>
            </g>
            <g id="x" transform="translate(215.000000, 197.000000)" stroke="#6E99FF" stroke-width="19">
                <rect id="Rectangle-2" transform="translate(17.962917, 17.988677) rotate(-45.000000) translate(-17.962917, -17.988677) " x="16.148031" y="-4.89752326" width="3.62977208" height="45.7724001" rx="1.81488604"></rect>
                <rect id="Rectangle-2" transform="translate(17.962917, 17.988677) scale(-1, 1) rotate(-45.000000) translate(-17.962917, -17.988677) " x="16.148031" y="-4.89752326" width="3.62977208" height="45.7724001" rx="1.81488604"></rect>
            </g>
            <g id="x" transform="translate(-18.000000, 197.000000)" stroke="#6E99FF" stroke-width="19">
                <rect id="Rectangle-2" transform="translate(17.962917, 17.988677) rotate(-45.000000) translate(-17.962917, -17.988677) " x="16.148031" y="-4.89752326" width="3.62977208" height="45.7724001" rx="1.81488604"></rect>
                <rect id="Rectangle-2" transform="translate(17.962917, 17.988677) scale(-1, 1) rotate(-45.000000) translate(-17.962917, -17.988677) " x="16.148031" y="-4.89752326" width="3.62977208" height="45.7724001" rx="1.81488604"></rect>
            </g>
        </g>
    </g>
</svg>